<?xml version="1.0" encoding="UTF-8" standalone="no"?>
<svg
   xmlns:dc="http://purl.org/dc/elements/1.1/"
   xmlns:cc="http://creativecommons.org/ns#"
   xmlns:rdf="http://www.w3.org/1999/02/22-rdf-syntax-ns#"
   xmlns:svg="http://www.w3.org/2000/svg"
   xmlns="http://www.w3.org/2000/svg"
   xmlns:sodipodi="http://sodipodi.sourceforge.net/DTD/sodipodi-0.dtd"
   xmlns:inkscape="http://www.inkscape.org/namespaces/inkscape"
   fill="#333"
   height="512pt"
   viewBox="0 0 512 512"
   width="512pt"
   version="1.1"
   id="svg4"
   sodipodi:docname="crss.svg"
   inkscape:version="0.92.5 (2060ec1f9f, 2020-04-08)">
  <metadata
     id="metadata10">
    <rdf:RDF>
      <cc:Work
         rdf:about="">
        <dc:format>image/svg+xml</dc:format>
        <dc:type
           rdf:resource="http://purl.org/dc/dcmitype/StillImage" />
      </cc:Work>
    </rdf:RDF>
  </metadata>
  <defs
     id="defs8" />
  <sodipodi:namedview
     pagecolor="#ffffff"
     bordercolor="#666666"
     borderopacity="1"
     objecttolerance="10"
     gridtolerance="10"
     guidetolerance="10"
     inkscape:pageopacity="0"
     inkscape:pageshadow="2"
     inkscape:window-width="640"
     inkscape:window-height="480"
     id="namedview6"
     showgrid="false"
     inkscape:zoom="0.34570313"
     inkscape:cx="296.49718"
     inkscape:cy="326.87006"
     inkscape:window-x="0"
     inkscape:window-y="0"
     inkscape:window-maximized="0"
     inkscape:current-layer="svg4" />
  <path
     d="m437.019531 74.980469c-48.351562-48.351563-112.640625-74.980469-181.019531-74.980469s-132.667969 26.628906-181.019531 74.980469c-48.351563 48.351562-74.980469 112.640625-74.980469 181.019531s26.628906 132.667969 74.980469 181.019531c48.351562 48.351563 112.640625 74.980469 181.019531 74.980469s132.667969-26.628906 181.019531-74.980469c48.351563-48.351562 74.980469-112.640625 74.980469-181.019531s-26.628906-132.667969-74.980469-181.019531zm-267.757812 292.957031c-13.730469 0-24.90625-11.171875-24.90625-24.90625s11.175781-24.90625 24.90625-24.90625c13.734375 0 24.90625 11.171875 24.90625 24.90625s-11.171875 24.90625-24.90625 24.90625zm80.277343 4.925781c-8.28125 0-15-6.714843-15-15 0-44.171875-35.9375-80.109375-80.109374-80.109375-8.285157 0-15-6.71875-15-15 0-8.285156 6.714843-15 15-15 60.714843 0 110.109374 49.394532 110.109374 110.109375 0 8.285157-6.714843 15-15 15zm67.09375 0c-8.285156 0-15-6.714843-15-15 0-81.167969-66.035156-147.203125-147.203124-147.203125-8.285157 0-15-6.714844-15-15s6.714843-15 15-15c97.710937 0 177.203124 79.492188 177.203124 177.203125 0 8.285157-6.714843 15-15 15zm66.292969 0c-8.28125 0-15-6.714843-15-15 0-117.722656-95.773437-213.496093-213.496093-213.496093-8.285157 0-15-6.714844-15-15 0-8.285157 6.714843-15 15-15 65.039062 0 126.1875 25.328124 172.179687 71.316406 45.988281 45.992187 71.316406 107.140625 71.316406 172.179687 0 8.285157-6.714843 15-15 15zm0 0"
     id="path2"
     style="fill:#008080" />
</svg>
